<svg width="650.4px" height="119.8px" xmlns="http://www.w3.org/2000/svg" viewBox="-75.21002197265625 15.079997253417972 650.4200439453125 119.84000549316406" style="background: rgba(0, 0, 0, 0)" preserveAspectRatio="xMidYMid"><defs><filter id="editing-vr"><feFlood flood-color="#f00" flood-opacity="0.7" result="c1"></feFlood><feFlood flood-color="#00f" flood-opacity="0.7" result="c3"></feFlood><feComposite operator="in" in="c1" in2="SourceAlpha" result="text-c1"></feComposite><feComposite operator="in" in="c3" in2="SourceAlpha" result="text-c3"></feComposite><feOffset in="text-c1" dx="5" dy="-1" result="text1"></feOffset><feOffset in="text-c3" dx="-5" dy="1" result="text3"></feOffset><feBlend in="SourceGraphic" in2="text1" mode="multiply" result="text4"></feBlend><feBlend in="text4" in2="text3" mode="multiply"></feBlend></filter></defs><g filter="url(#editing-vr)"><g transform="matrix(1.3,0,0,1.7,-56.5,199.1)"><path d="M 1.5 -62 L -12.5 -62 L -4.3 -104.3 L 9.7 -104.3 L 1.5 -62 Z M 57.2 -60.7 L 57.2 -60.7 L 57.2 -60.7 Q 49.5 -60.7 49.5 -66.8 L 49.5 -66.8 L 49.5 -66.8 Q 49.5 -69.4 50.6 -74.5 L 50.6 -74.5 L 50.6 -74.5 Q 51.7 -79.6 52.1 -81.6 L 52.1 -81.6 L 52.1 -81.6 Q 53 -86.3 53 -87.8 L 53 -87.8 L 53 -87.8 Q 53 -91 50.6 -91 L 50.6 -91 L 50.6 -91 Q 49 -91 47.4 -88.8 L 47.4 -88.8 L 47.4 -88.8 Q 45.9 -86.6 45.2 -82.2 L 45.2 -82.2 L 41.2 -62 L 28.7 -60.7 L 32.2 -78.2 L 32.2 -78.2 Q 32.8 -81 33.3 -84.3 L 33.3 -84.3 L 33.3 -84.3 Q 33.8 -87.6 33.8 -88.1 L 33.8 -88.1 L 33.8 -88.1 Q 33.8 -91 31.6 -91 L 31.6 -91 L 31.6 -91 Q 30.2 -91 28.6 -88.8 L 28.6 -88.8 L 28.6 -88.8 Q 27 -86.7 26.1 -82.2 L 26.1 -82.2 L 22.2 -62 L 9.5 -60.7 L 16.3 -94.7 L 26.7 -95.9 L 25.6 -89.5 L 25.6 -89.5 Q 27.3 -92.9 30.3 -94.4 L 30.3 -94.4 L 30.3 -94.4 Q 33.4 -95.9 38.2 -95.9 L 38.2 -95.9 L 38.2 -95.9 Q 41 -95.9 42.8 -94.6 L 42.8 -94.6 L 42.8 -94.6 Q 44.6 -93.3 45.1 -91.1 L 45.1 -91.1 L 45.1 -91.1 Q 46.2 -93.3 49 -94.6 L 49 -94.6 L 49 -94.6 Q 51.8 -95.9 55.2 -95.9 L 55.2 -95.9 L 55.2 -95.9 Q 58.6 -95.9 60.3 -95.2 L 60.3 -95.2 L 60.3 -95.2 Q 62 -94.5 63 -93.3 L 63 -93.3 L 63 -93.3 Q 64.8 -91 64.8 -86.9 L 64.8 -86.9 L 64.8 -86.9 Q 64.8 -82.9 63 -74.5 L 63 -74.5 L 63 -74.5 Q 62.2 -70.4 62.2 -68.9 L 62.2 -68.9 L 62.2 -68.9 Q 62.2 -67.4 63 -66.5 L 63 -66.5 L 63 -66.5 Q 63.9 -65.6 65.2 -65.5 L 65.2 -65.5 L 65.2 -65.5 Q 64.5 -63.3 62.3 -62 L 62.3 -62 L 62.3 -62 Q 60.1 -60.7 57.2 -60.7 Z M 72.9 -63.9 L 72.9 -63.9 L 72.9 -63.9 Q 71.4 -65.6 70.7 -68.2 L 70.7 -68.2 L 70.7 -68.2 Q 70 -70.9 70 -75.1 L 70 -75.1 L 70 -75.1 Q 70 -79.4 71.5 -83.3 L 71.5 -83.3 L 71.5 -83.3 Q 73 -87.2 75.7 -90.1 L 75.7 -90.1 L 75.7 -90.1 Q 81.2 -95.9 90.2 -95.9 L 90.2 -95.9 L 90.2 -95.9 Q 93.5 -95.9 95.9 -94.9 L 95.9 -94.9 L 106.8 -95.9 L 102.1 -71 L 102.1 -71 Q 101.9 -70.2 101.9 -68.8 L 101.9 -68.8 L 101.9 -68.8 Q 101.9 -67.4 102.8 -66.5 L 102.8 -66.5 L 102.8 -66.5 Q 103.6 -65.6 104.9 -65.5 L 104.9 -65.5 L 104.9 -65.5 Q 104.3 -63.3 101.9 -62 L 101.9 -62 L 101.9 -62 Q 99.6 -60.7 97 -60.7 L 97 -60.7 L 97 -60.7 Q 94.3 -60.7 92.6 -61.7 L 92.6 -61.7 L 92.6 -61.7 Q 90.8 -62.7 90.3 -64.4 L 90.3 -64.4 L 90.3 -64.4 Q 89.3 -62.8 87.1 -61.8 L 87.1 -61.8 L 87.1 -61.8 Q 84.9 -60.7 82 -60.7 L 82 -60.7 L 82 -60.7 Q 79.1 -60.7 76.7 -61.5 L 76.7 -61.5 L 76.7 -61.5 Q 74.4 -62.3 72.9 -63.9 Z M 86.4 -89.9 L 86.4 -89.9 L 86.4 -89.9 Q 85.6 -88.8 85 -86.8 L 85 -86.8 L 85 -86.8 Q 84.4 -84.9 83.3 -79.7 L 83.3 -79.7 L 83.3 -79.7 Q 82.2 -74.4 82.2 -70.7 L 82.2 -70.7 L 82.2 -70.7 Q 82.2 -67 82.8 -65.9 L 82.8 -65.9 L 82.8 -65.9 Q 83.4 -64.8 84.4 -64.8 L 84.4 -64.8 L 84.4 -64.8 Q 86.5 -64.8 88 -66.8 L 88 -66.8 L 88 -66.8 Q 89.5 -68.7 90.1 -72.2 L 90.1 -72.2 L 93.4 -91 L 93.4 -91 Q 92.1 -92.1 90.5 -92.1 L 90.5 -92.1 L 90.5 -92.1 Q 89 -92.1 88 -91.6 L 88 -91.6 L 88 -91.6 Q 87.1 -91.1 86.4 -89.9 Z M 114.6 -88.8 L 114.6 -88.8 L 114.6 -88.8 Q 116.7 -91.8 120 -93.9 L 120 -93.9 L 120 -93.9 Q 123.3 -95.9 127.4 -95.9 L 127.4 -95.9 L 127.4 -95.9 Q 131.4 -95.9 133.3 -94.7 L 133.3 -94.7 L 145.9 -95.9 L 141.5 -71.4 L 141.5 -71.4 Q 139.3 -58.8 134.5 -53.9 L 134.5 -53.9 L 134.5 -53.9 Q 130 -49.2 121.2 -49.2 L 121.2 -49.2 L 121.2 -49.2 Q 114.4 -49.2 110.6 -51.3 L 110.6 -51.3 L 110.6 -51.3 Q 106.8 -53.4 106.8 -57 L 106.8 -57 L 106.8 -57 Q 106.8 -59.6 108.7 -61.1 L 108.7 -61.1 L 108.7 -61.1 Q 110.7 -62.6 113.8 -62.6 L 113.8 -62.6 L 113.8 -62.6 Q 116.5 -62.6 118.5 -61.4 L 118.5 -61.4 L 118.5 -61.4 Q 119.8 -60.7 120.3 -59.8 L 120.3 -59.8 L 120.3 -59.8 Q 118.9 -58.6 118.9 -56.5 L 118.9 -56.5 L 118.9 -56.5 Q 118.9 -53.7 121.4 -53.7 L 121.4 -53.7 L 121.4 -53.7 Q 125.7 -53.7 128.1 -63.8 L 128.1 -63.8 L 128.1 -63.8 Q 128.8 -66.6 129.4 -69.3 L 129.4 -69.3 L 129.4 -69.3 Q 126.5 -65.8 120 -65.8 L 120 -65.8 L 120 -65.8 Q 115.5 -65.8 112.8 -68 L 112.8 -68 L 112.8 -68 Q 110.2 -70.2 110.2 -75.3 L 110.2 -75.3 L 110.2 -75.3 Q 110.2 -78.5 111.3 -82.1 L 111.3 -82.1 L 111.3 -82.1 Q 112.4 -85.7 114.6 -88.8 Z M 122.9 -75.1 L 122.9 -75.1 L 122.9 -75.1 Q 122.9 -70.7 125.1 -70.7 L 125.1 -70.7 L 125.1 -70.7 Q 126.7 -70.7 128.1 -72.4 L 128.1 -72.4 L 128.1 -72.4 Q 129.3 -73.7 129.7 -75.7 L 129.7 -75.7 L 133 -92.2 L 133 -92.2 Q 132.7 -92.2 132.4 -92.4 L 132.4 -92.4 L 132.4 -92.4 Q 131.7 -92.6 130.9 -92.6 L 130.9 -92.6 L 130.9 -92.6 Q 127 -92.6 124.7 -86.2 L 124.7 -86.2 L 124.7 -86.2 Q 122.9 -81.2 122.9 -75.1 Z M 174.3 -72.8 L 174.3 -72.8 L 174.3 -72.8 Q 175.9 -71.8 175.9 -69.4 L 175.9 -69.4 L 175.9 -69.4 Q 175.9 -67 174.7 -65.4 L 174.7 -65.4 L 174.7 -65.4 Q 173.4 -63.9 171.5 -62.9 L 171.5 -62.9 L 171.5 -62.9 Q 167.4 -60.7 163 -60.7 L 163 -60.7 L 163 -60.7 Q 158.5 -60.7 155.9 -61.7 L 155.9 -61.7 L 155.9 -61.7 Q 153.4 -62.7 151.6 -64.5 L 151.6 -64.5 L 151.6 -64.5 Q 148.2 -67.8 148.2 -74.1 L 148.2 -74.1 L 148.2 -74.1 Q 148.2 -83.7 153.5 -89.6 L 153.5 -89.6 L 153.5 -89.6 Q 159.1 -95.9 168.9 -95.9 L 168.9 -95.9 L 168.9 -95.9 Q 175 -95.9 178 -93.4 L 178 -93.4 L 178 -93.4 Q 180.2 -91.5 180.2 -88.3 L 180.2 -88.3 L 180.2 -88.3 Q 180.2 -77.1 160.8 -77.1 L 160.8 -77.1 L 160.8 -77.1 Q 160.5 -75.4 160.5 -74 L 160.5 -74 L 160.5 -74 Q 160.5 -71 161.8 -69.9 L 161.8 -69.9 L 161.8 -69.9 Q 163.1 -68.8 165.6 -68.8 L 165.6 -68.8 L 165.6 -68.8 Q 168 -68.8 170.6 -69.9 L 170.6 -69.9 L 170.6 -69.9 Q 173.2 -71 174.3 -72.8 Z M 161.2 -79.8 L 161.2 -79.8 L 161.2 -79.8 Q 165.8 -79.8 168.4 -82.6 L 168.4 -82.6 L 168.4 -82.6 Q 171 -85.3 171 -89.6 L 171 -89.6 L 171 -89.6 Q 171 -91.1 170.5 -91.9 L 170.5 -91.9 L 170.5 -91.9 Q 169.9 -92.7 168.8 -92.7 L 168.8 -92.7 L 168.8 -92.7 Q 167.8 -92.7 166.8 -92.3 L 166.8 -92.3 L 166.8 -92.3 Q 165.9 -91.8 164.9 -90.4 L 164.9 -90.4 L 164.9 -90.4 Q 162.6 -87.2 161.2 -79.8 Z M 201.5 -84.5 L 201.5 -84.5 L 201.5 -84.5 Q 202.4 -86.9 202.4 -88.9 L 202.4 -88.9 L 202.4 -88.9 Q 202.4 -92.7 199.4 -92.7 L 199.4 -92.7 L 199.4 -92.7 Q 197.8 -92.7 196.5 -91.2 L 196.5 -91.2 L 196.5 -91.2 Q 195.1 -89.8 195.1 -88 L 195.1 -88 L 195.1 -88 Q 195.1 -86.7 196.2 -85.7 L 196.2 -85.7 L 196.2 -85.7 Q 197.6 -84.3 201.4 -82 L 201.4 -82 L 201.4 -82 Q 205.2 -79.7 206.6 -77.8 L 206.6 -77.8 L 206.6 -77.8 Q 208.1 -75.9 208.1 -73.3 L 208.1 -73.3 L 208.1 -73.3 Q 208.1 -70.7 206.8 -68.4 L 206.8 -68.4 L 206.8 -68.4 Q 205.6 -66 203.3 -64.3 L 203.3 -64.3 L 203.3 -64.3 Q 198.5 -60.7 190.9 -60.7 L 190.9 -60.7 L 190.9 -60.7 Q 186.7 -60.7 183.5 -62.9 L 183.5 -62.9 L 183.5 -62.9 Q 180.3 -65 180.3 -67.5 L 180.3 -67.5 L 180.3 -67.5 Q 180.3 -70 182.1 -71.5 L 182.1 -71.5 L 182.1 -71.5 Q 183.9 -73 186.6 -73 L 186.6 -73 L 186.6 -73 Q 189.3 -73 191 -71.9 L 191 -71.9 L 191 -71.9 Q 190.2 -69.8 190.2 -68.4 L 190.2 -68.4 L 190.2 -68.4 Q 190.2 -64.2 193.7 -64.2 L 193.7 -64.2 L 193.7 -64.2 Q 195.3 -64.2 196.3 -65.2 L 196.3 -65.2 L 196.3 -65.2 Q 197.3 -66.1 197.3 -67.8 L 197.3 -67.8 L 197.3 -67.8 Q 197.3 -71 191.8 -74.5 L 191.8 -74.5 L 191.8 -74.5 Q 187.3 -77.4 186.3 -78.6 L 186.3 -78.6 L 186.3 -78.6 Q 184.6 -80.6 184.6 -83.2 L 184.6 -83.2 L 184.6 -83.2 Q 184.6 -85.8 185.8 -88.2 L 185.8 -88.2 L 185.8 -88.2 Q 187 -90.6 189.3 -92.4 L 189.3 -92.4 L 189.3 -92.4 Q 193.9 -95.9 202.1 -95.9 L 202.1 -95.9 L 202.1 -95.9 Q 206.2 -95.9 208.7 -94.3 L 208.7 -94.3 L 208.7 -94.3 Q 211.1 -92.6 211.1 -89.8 L 211.1 -89.8 L 211.1 -89.8 Q 211.1 -87 209.4 -85.4 L 209.4 -85.4 L 209.4 -85.4 Q 207.8 -83.8 204.7 -83.8 L 204.7 -83.8 L 204.7 -83.8 Q 202.6 -83.8 201.5 -84.5 Z M 252.6 -82.6 L 265.5 -83.8 L 265.5 -83.8 Q 260.9 -73.7 260.9 -62 L 260.9 -62 L 260.9 -62 Q 259.2 -60.7 256.7 -60.7 L 256.7 -60.7 L 256.7 -60.7 Q 254.2 -60.7 252.6 -61.9 L 252.6 -61.9 L 252.6 -61.9 Q 251 -63.1 250.6 -64.3 L 250.6 -64.3 L 250.6 -64.3 Q 249 -62.7 246.4 -61.7 L 246.4 -61.7 L 246.4 -61.7 Q 243.8 -60.7 241.1 -60.7 L 241.1 -60.7 L 241.1 -60.7 Q 238.3 -60.7 235.9 -61.6 L 235.9 -61.6 L 235.9 -61.6 Q 233.5 -62.5 231.7 -64.5 L 231.7 -64.5 L 231.7 -64.5 Q 227.6 -68.9 227.6 -77.1 L 227.6 -77.1 L 227.6 -77.1 Q 227.6 -89.9 234.4 -97.6 L 234.4 -97.6 L 234.4 -97.6 Q 241.5 -105.5 254 -105.5 L 254 -105.5 L 254 -105.5 Q 262.6 -105.5 265.7 -101.1 L 265.7 -101.1 L 265.7 -101.1 Q 266.6 -99.7 266.6 -98 L 266.6 -98 L 266.6 -98 Q 266.6 -96.3 265.9 -94.8 L 265.9 -94.8 L 265.9 -94.8 Q 265.2 -93.4 264 -92.2 L 264 -92.2 L 264 -92.2 Q 261.3 -89.7 257.9 -89.7 L 257.9 -89.7 L 257.9 -89.7 Q 256.5 -89.7 255.2 -90.1 L 255.2 -90.1 L 255.2 -90.1 Q 255.5 -92 255.5 -94.3 L 255.5 -94.3 L 255.5 -94.3 Q 255.5 -96.5 255.3 -97.5 L 255.3 -97.5 L 255.3 -97.5 Q 255.2 -98.6 254.8 -99.4 L 254.8 -99.4 L 254.8 -99.4 Q 254 -101.1 252.1 -101.1 L 252.1 -101.1 L 252.1 -101.1 Q 250.3 -101.1 248.3 -99.2 L 248.3 -99.2 L 248.3 -99.2 Q 246.3 -97.2 244.7 -94 L 244.7 -94 L 244.7 -94 Q 241.2 -86.9 241.2 -78.2 L 241.2 -78.2 L 241.2 -78.2 Q 241.2 -74.2 242.7 -71.4 L 242.7 -71.4 L 242.7 -71.4 Q 244.4 -68.4 247.3 -68.4 L 247.3 -68.4 L 247.3 -68.4 Q 248.3 -68.4 249.3 -68.9 L 249.3 -68.9 L 249.3 -68.9 Q 250.2 -69.4 250.6 -69.8 L 250.6 -69.8 L 252.6 -82.6 Z M 271.5 -63.9 L 271.5 -63.9 L 271.5 -63.9 Q 270 -65.6 269.3 -68.2 L 269.3 -68.2 L 269.3 -68.2 Q 268.6 -70.9 268.6 -75.1 L 268.6 -75.1 L 268.6 -75.1 Q 268.6 -79.4 270.1 -83.3 L 270.1 -83.3 L 270.1 -83.3 Q 271.6 -87.2 274.2 -90.1 L 274.2 -90.1 L 274.2 -90.1 Q 279.8 -95.9 288.8 -95.9 L 288.8 -95.9 L 288.8 -95.9 Q 292.1 -95.9 294.5 -94.9 L 294.5 -94.9 L 305.4 -95.9 L 300.7 -71 L 300.7 -71 Q 300.5 -70.2 300.5 -68.8 L 300.5 -68.8 L 300.5 -68.8 Q 300.5 -67.4 301.4 -66.5 L 301.4 -66.5 L 301.4 -66.5 Q 302.2 -65.6 303.5 -65.5 L 303.5 -65.5 L 303.5 -65.5 Q 302.9 -63.3 300.5 -62 L 300.5 -62 L 300.5 -62 Q 298.2 -60.7 295.6 -60.7 L 295.6 -60.7 L 295.6 -60.7 Q 292.9 -60.7 291.2 -61.7 L 291.2 -61.7 L 291.2 -61.7 Q 289.4 -62.7 288.9 -64.4 L 288.9 -64.4 L 288.9 -64.4 Q 287.9 -62.8 285.7 -61.8 L 285.7 -61.8 L 285.7 -61.8 Q 283.5 -60.7 280.6 -60.7 L 280.6 -60.7 L 280.6 -60.7 Q 277.7 -60.7 275.3 -61.5 L 275.3 -61.5 L 275.3 -61.5 Q 273 -62.3 271.5 -63.9 Z M 285 -89.9 L 285 -89.9 L 285 -89.9 Q 284.2 -88.8 283.6 -86.8 L 283.6 -86.8 L 283.6 -86.8 Q 283 -84.9 281.9 -79.7 L 281.9 -79.7 L 281.9 -79.7 Q 280.8 -74.4 280.8 -70.7 L 280.8 -70.7 L 280.8 -70.7 Q 280.8 -67 281.4 -65.9 L 281.4 -65.9 L 281.4 -65.9 Q 282 -64.8 283 -64.8 L 283 -64.8 L 283 -64.8 Q 285.1 -64.8 286.6 -66.8 L 286.6 -66.8 L 286.6 -66.8 Q 288.1 -68.7 288.6 -72.2 L 288.6 -72.2 L 292 -91 L 292 -91 Q 290.7 -92.1 289.1 -92.1 L 289.1 -92.1 L 289.1 -92.1 Q 287.6 -92.1 286.6 -91.6 L 286.6 -91.6 L 286.6 -91.6 Q 285.7 -91.1 285 -89.9 Z M 324.2 -65.5 L 324.2 -65.5 L 324.2 -65.5 Q 322.2 -60.7 315.8 -60.7 L 315.8 -60.7 L 315.8 -60.7 Q 312.6 -60.7 310.6 -63 L 310.6 -63 L 310.6 -63 Q 308.9 -64.8 308.9 -67 L 308.9 -67 L 308.9 -67 Q 308.9 -71.8 311.2 -82.2 L 311.2 -82.2 L 315.8 -106.8 L 328.8 -108.1 L 322.6 -75.7 L 322.6 -75.7 Q 321.5 -71 321.5 -69.3 L 321.5 -69.3 L 321.5 -69.3 Q 321.5 -65.7 324.2 -65.5 Z M 344.9 -65.5 L 344.9 -65.5 L 344.9 -65.5 Q 342.9 -60.7 336.6 -60.7 L 336.6 -60.7 L 336.6 -60.7 Q 333.4 -60.7 331.3 -63 L 331.3 -63 L 331.3 -63 Q 329.7 -64.8 329.7 -67 L 329.7 -67 L 329.7 -67 Q 329.7 -71.8 331.9 -82.2 L 331.9 -82.2 L 336.6 -106.8 L 349.6 -108.1 L 343.4 -75.7 L 343.4 -75.7 Q 342.3 -71 342.3 -69.3 L 342.3 -69.3 L 342.3 -69.3 Q 342.3 -65.7 344.9 -65.5 Z M 376.3 -72.8 L 376.3 -72.8 L 376.3 -72.8 Q 377.9 -71.8 377.9 -69.4 L 377.9 -69.4 L 377.9 -69.4 Q 377.9 -67 376.6 -65.4 L 376.6 -65.4 L 376.6 -65.4 Q 375.4 -63.9 373.4 -62.9 L 373.4 -62.9 L 373.4 -62.9 Q 369.4 -60.7 364.9 -60.7 L 364.9 -60.7 L 364.9 -60.7 Q 360.5 -60.7 357.9 -61.7 L 357.9 -61.7 L 357.9 -61.7 Q 355.3 -62.7 353.6 -64.5 L 353.6 -64.5 L 353.6 -64.5 Q 350.2 -67.8 350.2 -74.1 L 350.2 -74.1 L 350.2 -74.1 Q 350.2 -83.7 355.5 -89.6 L 355.5 -89.6 L 355.5 -89.6 Q 361.1 -95.9 370.9 -95.9 L 370.9 -95.9 L 370.9 -95.9 Q 377 -95.9 380 -93.4 L 380 -93.4 L 380 -93.4 Q 382.2 -91.5 382.2 -88.3 L 382.2 -88.3 L 382.2 -88.3 Q 382.2 -77.1 362.8 -77.1 L 362.8 -77.1 L 362.8 -77.1 Q 362.5 -75.4 362.5 -74 L 362.5 -74 L 362.5 -74 Q 362.5 -71 363.8 -69.9 L 363.8 -69.9 L 363.8 -69.9 Q 365.1 -68.8 367.6 -68.8 L 367.6 -68.8 L 367.6 -68.8 Q 370 -68.8 372.6 -69.9 L 372.6 -69.9 L 372.6 -69.9 Q 375.2 -71 376.3 -72.8 Z M 363.2 -79.8 L 363.2 -79.8 L 363.2 -79.8 Q 367.8 -79.8 370.4 -82.6 L 370.4 -82.6 L 370.4 -82.6 Q 373 -85.3 373 -89.6 L 373 -89.6 L 373 -89.6 Q 373 -91.1 372.5 -91.9 L 372.5 -91.9 L 372.5 -91.9 Q 371.9 -92.7 370.8 -92.7 L 370.8 -92.7 L 370.8 -92.7 Q 369.7 -92.7 368.8 -92.3 L 368.8 -92.3 L 368.8 -92.3 Q 367.9 -91.8 366.9 -90.4 L 366.9 -90.4 L 366.9 -90.4 Q 364.6 -87.2 363.2 -79.8 Z M 404.4 -80 L 404.4 -80 L 404.4 -80 Q 406.7 -84.1 406.7 -88.3 L 406.7 -88.3 L 406.7 -88.3 Q 406.7 -91 404.7 -91 L 404.7 -91 L 404.7 -91 Q 403.2 -91 401.6 -88.4 L 401.6 -88.4 L 401.6 -88.4 Q 399.9 -85.8 399.4 -82.4 L 399.4 -82.4 L 396.1 -62 L 382.9 -60.7 L 389.4 -94.7 L 399.9 -95.9 L 398.8 -89.5 L 398.8 -89.5 Q 401.9 -95.9 409 -95.9 L 409 -95.9 L 409 -95.9 Q 412.7 -95.9 414.7 -94 L 414.7 -94 L 414.7 -94 Q 416.7 -92.1 416.7 -88.2 L 416.7 -88.2 L 416.7 -88.2 Q 416.7 -84.2 414.1 -81.7 L 414.1 -81.7 L 414.1 -81.7 Q 411.5 -79.2 407.1 -79.2 L 407.1 -79.2 L 407.1 -79.2 Q 405.2 -79.2 404.4 -80 Z M 438.1 -69.3 L 438.1 -69.3 L 438.1 -69.3 Q 434.8 -65.8 428.7 -65.8 L 428.7 -65.8 L 428.7 -65.8 Q 421.1 -65.8 419.5 -71.4 L 419.5 -71.4 L 419.5 -71.4 Q 419 -73 419 -74.9 L 419 -74.9 L 419 -74.9 Q 419 -76.7 419.3 -78.7 L 419.3 -78.7 L 422.3 -94.7 L 435.3 -95.9 L 431.8 -77.3 L 431.8 -77.3 Q 431.7 -76.5 431.5 -75.6 L 431.5 -75.6 L 431.5 -75.6 Q 431.3 -74.7 431.3 -73.8 L 431.3 -73.8 L 431.3 -73.8 Q 431.3 -72.8 431.6 -72.2 L 431.6 -72.2 L 431.6 -72.2 Q 431.9 -71.6 432.4 -71.2 L 432.4 -71.2 L 432.4 -71.2 Q 433.2 -70.7 434.5 -70.7 L 434.5 -70.7 L 434.5 -70.7 Q 435.9 -70.7 437.1 -72.4 L 437.1 -72.4 L 437.1 -72.4 Q 438.3 -74.1 438.9 -76.9 L 438.9 -76.9 L 442.4 -94.7 L 455 -95.9 L 450.2 -70.8 L 450.2 -70.8 Q 447.8 -58.5 443 -53.6 L 443 -53.6 L 443 -53.6 Q 440.5 -51.1 437.2 -50.2 L 437.2 -50.2 L 437.2 -50.2 Q 434 -49.2 429.8 -49.2 L 429.8 -49.2 L 429.8 -49.2 Q 423.1 -49.2 419.3 -51.3 L 419.3 -51.3 L 419.3 -51.3 Q 415.4 -53.4 415.4 -56.9 L 415.4 -56.9 L 415.4 -56.9 Q 415.4 -59.5 417.4 -61 L 417.4 -61 L 417.4 -61 Q 419.4 -62.5 422.5 -62.5 L 422.5 -62.5 L 422.5 -62.5 Q 425.2 -62.5 427.2 -61.4 L 427.2 -61.4 L 427.2 -61.4 Q 428.4 -60.7 429 -59.8 L 429 -59.8 L 429 -59.8 Q 427.5 -58.5 427.5 -56.4 L 427.5 -56.4 L 427.5 -56.4 Q 427.5 -53.6 430.1 -53.6 L 430.1 -53.6 L 430.1 -53.6 Q 434.3 -53.6 436.7 -63.3 L 436.7 -63.3 L 436.7 -63.3 Q 437.4 -66.2 438.1 -69.3 Z" fill="#444444"></path></g></g><style>text {
  font-size: 64px;
  font-family: Arial Black;
  dominant-baseline: central;
  text-anchor: middle;
}</style></svg>